<?xml version="1.0" standalone="no"?> <!DOCTYPE svg PUBLIC "-//W3C//DTD SVG 20010904//EN" "http://www.w3.org/TR/2001/REC-SVG-20010904/DTD/svg10.dtd"> <svg version="1.0" xmlns="http://www.w3.org/2000/svg" width="312.000000pt" height="328.000000pt" viewBox="0 0 312.000000 328.000000" preserveAspectRatio="xMidYMid meet"> <g transform="translate(0.000000,328.000000) scale(0.100000,-0.100000)" fill="#00ff11" stroke="none"> <path d="M350 1740 l0 -1241 238 3 c203 3 242 6 272 21 19 9 134 100 255 201 l220 184 3 -205 2 -204 238 3 c214 3 241 5 275 23 48 26 879 717 922 768 18 21 38 58 44 82 14 56 15 676 1 726 -6 20 -20 52 -33 70 -26 39 -885 760 -937 786 -30 15 -69 18 -272 21 l-238 3 -2 -204 -3 -205 -215 180 c-118 98 -233 189 -255 201 -38 21 -54 22 -277 25 l-238 3 0 -1241z m990 0 l0 -820 -487 0 c-390 0 -485 3 -475 13 7 6 101 86 210 177 199 168 234 204 252 269 13 48 13 674 0 722 -18 65 -53 102 -268 282 l-213 177 491 0 490 0 0 -820z m990 0 l0 -820 -487 0 c-390 0 -485 3 -475 13 7 6 101 86 210 177 199 168 234 204 252 269 13 48 13 674 0 722 -18 65 -52 100 -268 281 l-213 178 491 0 490 0 0 -820z"/> </g> </svg>