<?xml version="1.0" standalone="no"?> <!DOCTYPE svg PUBLIC "-//W3C//DTD SVG 20010904//EN" "http://www.w3.org/TR/2001/REC-SVG-20010904/DTD/svg10.dtd"> <svg version="1.0" xmlns="http://www.w3.org/2000/svg" width="412.000000pt" height="412.000000pt" viewBox="0 0 412.000000 412.000000" preserveAspectRatio="xMidYMid meet"> <g transform="translate(0.000000,412.000000) scale(0.100000,-0.100000)" fill="#4a7a85" stroke="none"> <path d="M2000 3953 c-945 -42 -1769 -761 -1885 -1645 -140 -1061 609 -1998 1723 -2152 133 -19 1738 -24 1771 -6 49 26 54 245 11 450 -89 423 -379 829 -790 1105 -102 69 -190 36 -190 -72 1 -48 16 -67 115 -141 195 -145 374 -336 485 -517 135 -221 229 -556 171 -614 l-21 -21 -708 4 c-760 4 -812 7 -1019 60 -1408 356 -1824 2012 -734 2920 244 203 553 341 906 403 149 26 1565 32 1565 6 0 -76 -67 -298 -124 -411 -89 -175 -277 -392 -496 -571 -143 -117 -150 -125 -150 -177 0 -91 102 -139 176 -82 535 413 807 850 815 1310 1 101 -9 133 -46 145 -19 6 -1452 11 -1575 6z"/> <path d="M2169 3401 l-29 -29 0 -302 c0 -339 2 -349 66 -370 51 -17 109 1 129 40 22 43 22 597 0 640 -31 60 -116 70 -166 21z"/> <path d="M1372 3075 c-39 -17 -65 -69 -56 -114 8 -38 396 -428 446 -449 59 -25 143 17 148 73 7 65 3 70 -200 271 -243 241 -261 253 -338 219z"/> <path d="M932 2175 c-37 -31 -48 -73 -32 -120 21 -63 31 -65 384 -65 l316 0 32 29 c48 43 48 109 0 152 l-32 29 -319 0 -319 0 -30 -25z"/> <path d="M2861 2174 c-55 -46 -47 -145 15 -173 33 -15 677 -16 705 -1 56 31 64 117 15 166 l-34 34 -335 0 -335 0 -31 -26z"/> <path d="M4000 2029 c0 -5 5 -7 10 -4 6 3 10 8 10 11 0 2 -4 4 -10 4 -5 0 -10 -5 -10 -11z"/> <path d="M4065 1970 c-3 -5 -1 -10 4 -10 6 0 11 5 11 10 0 6 -2 10 -4 10 -3 0 -8 -4 -11 -10z"/> <path d="M1754 1693 c-18 -10 -119 -102 -224 -205 -191 -185 -193 -188 -197 -235 -8 -83 67 -141 141 -108 33 15 413 373 433 408 52 92 -60 194 -153 140z"/> <path d="M2204 1480 c-62 -25 -64 -36 -64 -356 0 -313 3 -335 49 -359 56 -28 115 -14 144 35 20 33 26 605 7 641 -22 39 -88 59 -136 39z"/> </g> </svg>