<?xml version="1.0" standalone="no"?> <!DOCTYPE svg PUBLIC "-//W3C//DTD SVG 20010904//EN" "http://www.w3.org/TR/2001/REC-SVG-20010904/DTD/svg10.dtd"> <svg version="1.0" xmlns="http://www.w3.org/2000/svg" width="600.000000pt" height="584.000000pt" viewBox="0 0 600.000000 584.000000" preserveAspectRatio="xMidYMid meet"> <g transform="translate(0.000000,584.000000) scale(0.050000,-0.050000)" fill="#00da76" stroke="none"> <path d="M960 11499 c0 -12 -8 -17 -17 -11 -9 6 -42 -16 -74 -49 -31 -32 -50 -59 -42 -59 8 0 3 -13 -11 -28 -14 -15 -31 -25 -38 -21 -21 13 -119 -103 -103 -121 8 -9 3 -10 -11 -1 -27 15 -84 -20 -84 -54 0 -10 14 -14 30 -8 25 10 27 5 11 -24 -13 -25 -12 -45 5 -64 20 -23 18 -23 -11 -1 -19 15 -30 34 -24 43 5 9 0 22 -13 30 -27 17 -241 -190 -224 -217 7 -11 3 -15 -8 -8 -11 7 -53 -22 -94 -63 l-74 -76 4 -909 c1 -499 4 -935 5 -968 l3 -60 1300 -6 c715 -3 1320 0 1344 6 l45 10 1 1340 0 1340 -960 0 c-662 0 -960 -7 -960 -21z m-661 -721 c-29 -54 -74 -61 -69 -11 6 54 3 51 48 48 30 -3 35 -11 21 -37z m-79 -1679 l-21 -49 10 50 c6 28 12 82 14 120 l4 70 7 -71 c4 -39 -2 -93 -14 -120z"/> <path d="M4039 11503 c-52 -13 -259 -180 -259 -209 0 -9 11 -10 25 -2 14 8 18 7 10 -2 -8 -9 -5 -28 8 -43 12 -15 14 -28 4 -29 -120 -16 -126 -15 -102 11 18 19 29 20 39 4 8 -12 21 -15 29 -6 9 8 3 23 -13 33 -34 21 -126 -53 -106 -86 7 -11 3 -15 -8 -8 -29 18 -171 -141 -154 -171 11 -20 8 -20 -13 0 -30 28 -119 -38 -119 -88 0 -15 -11 -25 -25 -22 -14 3 -25 -8 -26 -25 0 -16 -7 -42 -17 -56 -10 -17 -3 -37 21 -56 34 -26 32 -27 -16 -6 -51 22 -59 78 -12 78 12 0 16 6 9 13 -25 25 -75 -38 -62 -78 9 -29 5 -36 -13 -24 -16 9 -20 7 -11 -7 7 -12 13 -428 12 -923 0 -711 5 -901 25 -901 18 -1 18 -5 -3 -18 -93 -59 20 -62 2401 -62 2151 1 2400 4 2389 31 -7 19 -3 26 9 18 26 -16 82 29 67 54 -6 10 1 16 16 12 14 -3 24 7 21 21 -4 15 2 22 11 16 10 -5 65 38 123 97 64 65 96 111 83 120 -21 13 -24 10 -29 -27 -2 -10 -9 -25 -16 -32 -8 -8 -12 2 -9 22 3 19 27 49 53 67 29 19 41 21 32 6 -26 -42 6 -28 63 29 30 30 36 42 14 27 -22 -15 -4 6 39 45 43 40 73 79 65 87 -8 7 -30 -2 -51 -20 -30 -27 -36 -28 -36 -4 0 16 7 25 15 20 8 -5 21 0 28 11 7 11 36 16 64 11 28 -5 46 -5 41 1 -6 6 27 45 72 88 l83 77 -2 547 c-2 300 -5 565 -8 589 -3 24 -78 114 -167 200 -89 86 -149 139 -133 117 28 -37 27 -38 -5 -13 -19 16 -35 36 -35 47 0 27 -53 76 -82 76 -15 0 -11 -15 12 -40 29 -33 32 -46 12 -65 -19 -20 -22 -18 -11 9 10 27 3 33 -31 26 -32 -6 -38 -2 -23 16 26 31 25 57 -4 94 -20 27 -19 27 17 0 37 -28 38 -28 12 5 -21 28 -33 30 -56 12 -19 -16 -34 -17 -49 -2 -14 14 -13 25 4 36 16 10 20 7 11 -8 -8 -13 -5 -23 7 -23 24 0 28 27 6 48 -8 9 -15 21 -15 29 0 7 -51 60 -112 118 l-111 104 -1979 -2 c-1088 -1 -2001 -7 -2029 -14z m4521 -535 c0 26 80 -50 103 -98 14 -28 8 -26 -21 10 -23 28 -41 42 -42 32 0 -10 -18 -2 -40 18 -22 20 -40 46 -40 58 0 12 9 9 20 -8 11 -16 20 -22 20 -12z"/> <path d="M9141 10169 l1 -1349 964 0 c898 0 968 3 1019 37 30 20 49 42 42 50 -8 7 -2 13 12 13 23 0 121 89 121 109 0 4 -15 5 -33 4 -18 -2 -37 11 -41 27 -6 21 -4 23 8 6 24 -33 80 -21 117 25 18 22 25 26 17 9 -8 -16 22 11 66 60 57 62 75 95 59 107 -15 11 -11 13 9 6 33 -10 189 129 169 150 -6 5 17 40 51 78 33 38 55 58 48 44 -16 -32 6 -32 36 0 98 106 47 1331 -54 1311 -34 -7 -112 42 -112 70 1 15 7 13 19 -5 10 -17 25 -23 33 -16 8 8 -120 150 -284 315 l-298 300 -985 -1 -986 0 2 -1350z m2116 1137 c-33 -40 10 -82 49 -49 22 18 36 13 66 -22 23 -27 26 -35 6 -20 -17 14 -38 19 -45 11 -23 -23 -91 -21 -87 2 2 12 -6 20 -18 18 -15 -3 -24 71 -10 86 20 20 56 -5 39 -26z"/> <path d="M894 8444 c-25 -5 -33 -18 -24 -40 6 -18 6 -27 -2 -19 -21 21 -91 -24 -75 -49 7 -12 4 -17 -7 -10 -18 11 -206 -150 -206 -176 0 -6 25 4 55 22 51 30 52 30 15 -1 -22 -18 -38 -46 -34 -61 3 -15 -6 -34 -19 -42 -15 -9 -18 -6 -8 11 41 66 -42 56 -114 -14 -67 -66 -72 -76 -44 -106 57 -63 56 -124 -3 -86 -38 25 -44 38 -26 60 17 20 17 27 -1 27 -39 0 -235 -204 -206 -214 14 -5 25 -24 25 -43 -1 -28 -3 -29 -20 -3 -13 19 -19 -650 -20 -1909 l0 -1940 113 -106 c74 -71 124 -103 144 -95 18 7 25 6 18 -2 -8 -8 1 -27 20 -43 23 -18 25 -23 5 -15 -16 8 16 -30 71 -83 172 -165 247 -214 296 -196 16 7 34 4 40 -6 6 -10 -15 -17 -48 -15 -48 3 -54 -2 -36 -24 13 -15 36 -23 51 -17 16 6 23 2 16 -9 -25 -41 26 -18 57 25 28 39 31 40 19 5 -6 -22 -22 -52 -33 -67 -18 -23 116 -25 838 -16 472 6 920 12 994 12 l135 1 0 2620 0 2620 -285 1 c-157 1 -595 4 -975 6 -379 2 -706 0 -726 -3z"/> <path d="M4128 8440 c-244 -12 -313 -61 -298 -210 4 -44 3 -70 -2 -57 -6 12 -27 18 -49 13 -21 -6 -39 -1 -39 11 0 12 13 17 28 11 15 -6 34 -1 41 10 8 13 1 17 -18 10 -17 -7 -31 -2 -31 11 0 13 9 18 20 11 11 -7 20 4 20 24 0 26 -26 9 -90 -61 -49 -54 -84 -107 -77 -118 8 -13 4 -15 -10 -7 -13 8 -17 25 -10 38 8 13 -6 7 -30 -15 -25 -21 -40 -50 -35 -64 6 -14 0 -32 -12 -39 -14 -9 -16 -5 -6 12 11 18 8 21 -8 11 -14 -8 -20 -27 -14 -42 6 -17 0 -23 -17 -16 -16 6 -75 -36 -138 -96 l-111 -107 0 -1896 c-1 -1220 6 -1891 19 -1884 25 16 15 -76 -11 -94 -40 -29 231 -277 276 -253 34 18 38 16 27 -14 -16 -41 41 -114 75 -95 12 7 15 5 7 -4 -30 -33 107 -151 148 -129 29 16 34 14 24 -12 -14 -37 69 -134 99 -115 11 7 14 2 6 -10 -7 -12 8 -36 35 -54 82 -54 4020 -36 4104 18 32 21 142 120 243 220 100 100 220 216 265 257 44 42 81 94 81 116 0 23 9 36 20 29 12 -7 15 -23 7 -36 -7 -13 13 3 45 36 76 79 74 61 80 670 l6 530 -52 54 c-29 30 -61 49 -72 42 -11 -7 -14 -3 -7 8 25 41 -184 213 -223 183 -31 -25 -31 -24 -6 9 26 32 23 41 -20 82 -26 24 -114 107 -195 183 -139 132 -148 137 -175 100 -15 -21 -28 -30 -28 -19 0 11 11 31 25 45 20 21 17 31 -14 55 -39 28 -39 29 5 60 25 17 41 37 36 45 -5 8 -1 28 9 44 15 23 18 24 19 1 0 -15 32 7 70 49 39 42 70 71 70 65 0 -7 57 43 126 111 69 68 125 136 125 151 -1 15 13 32 29 36 27 8 27 7 0 -12 -21 -15 -23 -21 -4 -22 14 0 30 13 37 30 6 16 19 25 29 19 10 -6 18 2 18 18 0 15 23 44 51 62 45 29 48 38 25 67 -23 31 -23 31 10 6 98 -78 114 5 114 605 0 569 -9 631 -81 568 -23 -21 -23 -20 -1 9 25 34 -52 133 -104 135 -9 1 -11 9 -5 19 6 11 -16 39 -50 63 -34 24 -110 93 -169 154 -68 69 -116 104 -132 94 -15 -10 -19 -7 -10 8 8 13 1 37 -15 53 -40 39 -65 39 -32 -1 19 -23 20 -36 2 -54 -13 -13 -24 -19 -25 -14 -1 5 -4 37 -6 71 -3 40 -30 90 -74 136 l-69 73 -1849 5 c-1018 2 -1941 0 -2052 -6z m4204 -2987 c10 -2 16 -10 13 -18 -3 -8 5 -15 16 -15 12 0 16 -8 10 -19 -14 -23 -107 62 -95 86 5 10 16 7 24 -7 8 -13 22 -25 32 -27z m212 -1682 c-4 -21 2 -30 15 -22 37 23 23 -1 -24 -41 -44 -37 -44 -37 -15 1 27 34 27 37 -2 27 -27 -11 -35 20 -20 81 7 26 51 -19 46 -46z m-114 -128 c-7 -7 -24 -13 -37 -14 -12 0 -20 -13 -17 -28 5 -23 1 -23 -25 -2 -31 26 -23 71 9 51 9 -6 23 -1 30 10 7 11 22 15 33 8 11 -6 14 -18 7 -25z"/> <path d="M9218 8419 c-2 -36 -5 -39 -12 -13 -14 54 -55 29 -64 -38 -8 -62 -5 -5152 3 -5159 10 -9 1320 -19 1635 -12 360 7 544 62 449 131 -28 20 -29 29 -9 42 17 11 21 8 12 -7 -10 -15 0 -21 26 -17 56 9 146 96 133 129 -6 15 -2 22 9 15 11 -7 39 6 64 29 24 23 52 41 62 41 10 0 13 13 7 29 -7 19 -1 25 18 18 26 -10 39 14 31 59 -2 10 6 12 16 5 41 -25 141 101 110 136 -15 18 -17 24 -4 13 13 -11 30 -20 37 -20 24 0 119 98 104 107 -8 5 -10 93 -5 196 6 103 10 355 10 561 l0 375 -109 110 c-140 141 -192 145 -186 15 0 -15 -5 -21 -12 -14 -20 20 -17 110 4 110 10 0 6 16 -9 35 -22 30 -22 31 2 10 15 -14 37 -25 48 -25 12 0 1 14 -24 31 -24 17 -53 26 -64 19 -11 -7 -15 0 -9 15 12 32 -79 117 -129 120 -20 2 -35 15 -35 29 0 20 6 20 31 1 18 -13 11 0 -15 29 -43 49 -103 57 -103 14 0 -27 35 -22 46 7 6 14 9 5 8 -20 -2 -25 -8 -45 -16 -45 -24 0 -62 58 -50 77 7 11 5 23 -3 28 -8 5 -1 5 15 1 17 -3 8 12 -20 35 -27 24 -36 37 -20 29 17 -7 13 1 -8 18 -21 17 -46 26 -55 20 -9 -6 -17 4 -17 22 0 18 -9 27 -20 20 -11 -7 -15 1 -8 17 6 16 1 35 -11 42 -11 7 -21 22 -21 33 0 11 8 15 18 9 25 -15 146 127 129 153 -8 14 -4 16 11 7 27 -17 206 146 190 173 -6 8 5 10 24 3 23 -9 30 -5 24 15 -6 16 -32 26 -58 23 -43 -4 -44 -2 -11 17 27 16 43 16 59 0 25 -25 61 -30 47 -6 -6 8 18 38 53 65 118 92 153 140 146 202 -4 32 3 64 16 71 12 7 16 5 8 -3 -8 -9 -5 -34 7 -56 16 -31 15 -36 -4 -24 -17 10 -20 7 -10 -9 16 -27 41 -12 41 25 0 13 13 23 29 23 64 0 71 77 61 660 l-10 578 -68 46 c-37 25 -61 46 -54 46 18 0 -66 110 -85 111 -7 0 -66 54 -131 120 -65 65 -106 101 -91 79 22 -31 16 -29 -27 8 -30 27 -54 59 -54 70 0 12 9 9 20 -8 11 -16 20 -21 20 -9 0 30 -121 131 -142 118 -10 -6 -13 1 -7 16 6 15 -8 44 -30 64 -42 38 -1597 65 -1825 31 -58 -8 -102 -6 -115 7 -15 15 -22 6 -23 -28z"/> <path d="M400 2839 l90 -15 -111 2 c-61 0 -122 -6 -135 -14 -13 -8 -24 -4 -24 8 0 12 -9 17 -20 10 -34 -21 -25 -1901 10 -1930 15 -13 39 -17 52 -9 14 9 20 4 14 -12 -12 -38 88 -121 116 -97 16 13 22 5 20 -27 -1 -28 8 -43 24 -40 15 4 21 -3 14 -14 -14 -24 126 -152 162 -148 14 1 21 -8 16 -21 -13 -33 205 -239 234 -221 14 9 19 7 12 -5 -7 -11 4 -36 24 -55 30 -26 40 -28 48 -7 8 20 11 20 12 1 2 -20 197 -25 935 -24 888 2 1077 10 937 41 l-60 13 55 3 55 2 0 1290 0 1290 -1285 -3 c-707 -2 -1244 -10 -1195 -18z m2016 -14 c-41 -4 -113 -4 -160 0 -48 5 -14 8 74 8 88 0 126 -3 86 -8z m-1371 -60 c-47 -4 -123 -4 -170 0 -47 5 -8 8 85 8 94 0 132 -3 85 -8z m888 0 c13 -8 -95 -13 -240 -10 -410 9 -454 18 -103 21 176 2 330 -3 343 -11z"/> <path d="M3246 2820 c2 -30 17 -40 58 -40 31 0 56 -7 56 -17 0 -9 -26 -12 -57 -8 l-57 9 -4 -908 -3 -908 183 -169 c100 -93 193 -172 205 -176 13 -4 6 5 -15 21 -21 16 -32 42 -26 58 8 21 11 19 12 -7 2 -40 34 -47 49 -10 6 14 7 -2 3 -34 -9 -61 69 -171 121 -171 12 0 40 -20 61 -45 l38 -45 -50 39 c-27 22 -5 -7 49 -65 l100 -104 2020 2 c2246 3 2074 -4 2139 91 26 38 54 69 62 67 7 -2 122 107 254 241 133 135 229 238 214 229 -16 -9 11 18 58 59 l86 75 -3 565 -2 565 -127 123 c-70 68 -136 123 -148 123 -12 0 -21 7 -20 15 7 40 -5 47 -36 22 -25 -20 -30 -20 -18 -1 19 31 -24 89 -53 71 -12 -7 -16 -5 -9 6 15 25 -178 215 -203 199 -10 -6 -17 4 -16 23 2 19 -10 35 -27 36 -16 2 -50 4 -74 6 -32 2 -41 12 -33 34 11 27 16 27 49 -3 21 -19 38 -26 38 -15 0 10 -26 34 -58 53 -98 58 -4821 52 -4816 -6z m679 -55 c-47 -4 -123 -4 -170 0 -47 5 -8 8 85 8 94 0 132 -3 85 -8z m600 0 c-69 -4 -181 -4 -250 0 -69 4 -12 7 125 7 138 0 194 -3 125 -7z m520 0 c-47 -4 -123 -4 -170 0 -47 5 -8 8 85 8 94 0 132 -3 85 -8z m600 0 c-69 -4 -181 -4 -250 0 -69 4 -12 7 125 7 138 0 194 -3 125 -7z m520 0 c-47 -4 -123 -4 -170 0 -47 5 -8 8 85 8 94 0 132 -3 85 -8z m600 0 c-69 -4 -181 -4 -250 0 -69 4 -12 7 125 7 138 0 194 -3 125 -7z m520 0 c-47 -4 -123 -4 -170 0 -47 5 -8 8 85 8 94 0 132 -3 85 -8z m600 0 c-69 -4 -181 -4 -250 0 -69 4 -12 7 125 7 138 0 194 -3 125 -7z"/> <path d="M9152 2828 c-32 -83 -13 -2589 20 -2602 18 -6 40 1 50 16 13 21 17 21 18 3 0 -20 194 -25 943 -25 l943 2 119 115 c88 85 120 130 120 170 0 29 7 58 15 63 8 5 12 -14 9 -41 -5 -49 -3 -48 78 25 46 41 81 81 78 89 -2 8 12 20 32 26 19 6 66 44 104 84 38 40 56 66 41 57 -19 -11 -23 -9 -14 7 8 13 26 23 40 23 14 0 43 20 64 43 24 28 27 37 8 27 -24 -14 -26 -12 -6 11 16 21 25 206 30 615 l7 585 -142 139 c-79 77 -149 133 -156 126 -7 -7 -13 1 -13 17 0 54 -116 149 -145 118 -20 -22 -18 -25 11 -14 24 8 31 5 22 -10 -9 -14 -5 -18 9 -9 14 9 23 0 23 -25 0 -39 -1 -39 -49 3 -36 33 -43 50 -26 70 15 18 15 32 -2 49 -13 13 -23 15 -23 6 0 -9 -19 7 -41 36 -23 29 -54 53 -68 53 -14 0 -37 14 -51 30 -14 17 -44 31 -67 32 -36 2 -37 4 -7 12 21 5 57 -7 80 -27 24 -20 18 -7 -15 28 -61 67 -84 83 -58 40 8 -14 -1 -12 -22 5 -44 36 -59 38 -341 48 -140 5 -187 3 -130 -7 l90 -15 -106 -3 c-67 -2 -102 4 -94 17 8 13 -222 20 -677 20 -610 0 -690 -4 -701 -32z m403 -3 c-52 -4 -138 -4 -190 0 -52 4 -9 8 95 8 105 0 147 -4 95 -8z m651 -60 c-79 -4 -214 -4 -300 0 -86 4 -21 7 144 7 165 0 235 -3 156 -7z m1438 -475 c32 -27 50 -50 39 -50 -11 0 -26 9 -33 20 -7 12 -21 15 -31 9 -11 -6 -19 3 -19 20 0 17 -9 31 -20 31 -11 0 -20 -10 -20 -23 0 -13 -5 -18 -12 -12 -13 13 7 55 25 55 6 0 38 -22 71 -50z m-353 -1852 c21 -33 -26 -71 -53 -44 -23 23 -9 66 22 66 10 0 24 -10 31 -22z"/> </g> </svg>