<?xml version="1.0" standalone="no"?> <!DOCTYPE svg PUBLIC "-//W3C//DTD SVG 20010904//EN" "http://www.w3.org/TR/2001/REC-SVG-20010904/DTD/svg10.dtd"> <svg version="1.0" xmlns="http://www.w3.org/2000/svg" width="600.000000pt" height="180.000000pt" viewBox="0 0 600.000000 180.000000" preserveAspectRatio="xMidYMid meet"> <g transform="translate(0.000000,180.000000) scale(0.100000,-0.100000)" fill="#4a7a85" stroke="none"> <path d="M731 1765 c-466 -102 -767 -530 -697 -991 46 -302 236 -541 533 -669 147 -64 174 -67 633 -72 474 -5 440 -12 440 89 0 232 -136 468 -360 623 -52 36 -93 28 -98 -20 -2 -27 8 -39 90 -111 169 -146 257 -298 258 -442 l0 -44 -367 4 c-366 4 -368 4 -456 31 -761 234 -776 1221 -22 1484 l80 28 379 3 378 4 -7 -48 c-10 -67 -39 -136 -89 -213 -45 -68 -65 -91 -179 -200 -68 -64 -75 -78 -57 -112 49 -91 332 195 402 407 28 84 42 217 27 246 -13 24 -780 26 -888 3z"/> <path d="M967 1532 c-29 -32 -25 -296 5 -316 30 -21 44 -20 68 4 18 18 20 33 20 155 0 122 -2 137 -20 155 -25 25 -52 26 -73 2z"/> <path d="M586 1384 c-32 -31 -19 -56 86 -161 104 -105 135 -122 166 -91 31 31 14 62 -92 166 -105 104 -130 117 -160 86z"/> <path d="M4123 1103 c-22 -4 -23 -9 -23 -97 l0 -94 -43 16 c-130 47 -242 -85 -181 -214 31 -66 136 -97 193 -58 15 11 25 13 30 6 3 -5 24 -12 46 -13 l40 -4 0 229 c0 253 3 241 -62 229z m-37 -244 c25 -20 19 -125 -8 -143 -62 -44 -128 -6 -128 73 0 79 78 119 136 70z"/> <path d="M2023 873 l2 -228 138 3 c156 3 197 14 221 61 33 63 7 142 -54 163 -10 3 -5 12 20 35 48 43 49 114 1 154 -42 34 -67 39 -212 39 l-118 0 2 -227z m257 137 c54 -54 9 -100 -96 -100 l-76 0 6 31 c3 17 6 44 6 60 l0 29 70 0 c57 0 74 -4 90 -20z m8 -186 c16 -11 22 -25 22 -50 0 -44 -40 -64 -130 -64 l-60 0 0 34 c0 18 -3 48 -6 65 l-6 31 79 0 c55 0 85 -5 101 -16z"/> <path d="M2830 875 l0 -225 45 0 45 0 0 75 0 75 69 0 c135 0 211 56 211 157 0 103 -69 142 -247 143 l-123 0 0 -225z m256 134 c24 -25 22 -85 -4 -111 -17 -18 -37 -23 -92 -26 l-70 -4 0 82 0 82 75 -4 c51 -2 80 -8 91 -19z"/> <path d="M5202 1091 c-8 -5 -12 -23 -10 -47 3 -37 5 -39 40 -42 32 -3 40 1 50 22 24 53 -30 99 -80 67z"/> <path d="M4978 1033 c-26 -4 -28 -8 -28 -54 0 -46 -2 -49 -25 -49 -21 0 -25 -5 -25 -30 0 -25 4 -30 25 -30 25 0 25 -1 25 -80 0 -124 26 -154 126 -148 47 3 49 4 52 35 3 31 2 32 -30 27 -52 -8 -62 6 -66 90 l-4 75 48 3 c45 3 49 5 52 30 3 26 1 27 -45 30 l-48 3 3 53 c4 56 6 55 -60 45z"/> <path d="M402 964 c-28 -20 -30 -69 -3 -84 11 -5 84 -10 165 -10 157 0 176 6 176 55 0 45 -32 55 -180 55 -106 0 -140 -3 -158 -16z"/> <path d="M1294 970 c-27 -11 -35 -41 -20 -72 16 -31 321 -42 343 -11 18 23 16 58 -3 77 -17 18 -279 23 -320 6z"/> <path d="M2555 933 c-65 -17 -111 -95 -100 -170 12 -81 70 -123 168 -123 83 0 117 15 117 52 0 25 -3 29 -17 23 -47 -20 -140 -18 -162 4 -44 44 -31 51 90 51 l111 0 -7 43 c-15 95 -98 145 -200 120z m111 -78 c21 -32 22 -31 -58 -38 -61 -4 -68 -3 -68 14 0 49 98 67 126 24z"/> <path d="M3383 930 c-12 -5 -26 -17 -32 -27 -10 -16 -10 -16 -11 5 0 19 -5 22 -40 22 l-40 0 -2 -110 c-1 -60 -2 -125 -2 -142 -1 -32 0 -33 43 -33 l44 0 -2 86 c-3 104 11 128 74 132 38 3 40 4 40 37 0 38 -26 49 -72 30z"/> <path d="M3572 923 c-110 -54 -116 -215 -9 -264 140 -63 282 34 245 169 -25 93 -144 141 -236 95z m141 -74 c45 -54 9 -149 -57 -149 -64 0 -103 66 -77 133 19 50 97 59 134 16z"/> <path d="M4298 932 l-38 -3 0 -115 c0 -114 0 -116 29 -145 42 -42 144 -39 173 5 5 7 8 4 8 -6 0 -15 9 -18 45 -18 l46 0 -3 143 -3 142 -40 0 -40 0 -5 -105 c-5 -99 -6 -105 -30 -117 -71 -36 -94 -9 -100 119 l-5 103 -37 -3z"/> <path d="M4725 933 c-86 -22 -133 -139 -90 -223 43 -82 236 -98 243 -21 3 31 2 33 -20 27 -93 -28 -142 -12 -153 48 -14 75 43 127 118 107 44 -11 57 -4 57 31 0 29 -90 47 -155 31z"/> <path d="M5330 928 c0 -4 27 -67 60 -140 l59 -133 47 0 46 0 55 125 c75 172 74 161 23 158 -32 -1 -44 -7 -51 -23 -4 -11 -23 -58 -40 -104 l-32 -84 -41 103 -41 103 -42 1 c-24 1 -43 -2 -43 -6z"/> <path d="M5785 933 c-136 -34 -140 -246 -6 -283 94 -26 184 -5 189 44 3 26 1 28 -20 21 -69 -21 -136 -18 -162 8 -43 43 -35 47 84 47 l110 0 0 33 c0 96 -90 156 -195 130z m99 -69 c34 -33 20 -44 -55 -44 -73 0 -75 2 -41 43 19 21 75 22 96 1z"/> <path d="M5190 790 l0 -140 45 0 45 0 0 140 0 140 -45 0 -45 0 0 -140z"/> <path d="M683 651 c-109 -104 -122 -130 -85 -164 33 -30 53 -19 158 85 103 101 114 120 94 159 -23 41 -59 24 -167 -80z"/> <path d="M987 643 c-29 -7 -37 -46 -37 -176 0 -138 10 -167 59 -167 47 0 51 12 51 171 0 141 -1 149 -22 163 -12 9 -25 15 -28 15 -3 -1 -13 -3 -23 -6z"/> </g> </svg>